<svg xmlns="http://www.w3.org/2000/svg" xmlns:xlink="http://www.w3.org/1999/xlink" width="1000" zoomAndPan="magnify" viewBox="0 0 750 809.999993" height="1080" preserveAspectRatio="xMidYMid meet" version="1.0"><defs><clipPath id="108e03d83b"><path d="M 29.050781 75 L 721 75 L 721 796 L 29.050781 796 Z M 29.050781 75 " clip-rule="nonzero"/></clipPath></defs><g clip-path="url(#108e03d83b)"><path fill="#000000" d="M 417.417969 75.496094 C 447.34375 76.121094 466.328125 77.753906 476.886719 80.519531 C 485.4375 82.90625 501.65625 87.804688 513.097656 91.449219 C 524.414062 95.09375 542.390625 102.503906 553.078125 107.78125 C 563.765625 113.058594 583.503906 124.742188 596.957031 133.664062 C 612.042969 143.589844 631.53125 159.921875 647.371094 176 C 663.339844 192.207031 678.300781 210.425781 686.726562 223.992188 C 694.144531 235.929688 703.070312 252.765625 706.589844 261.308594 C 710.109375 269.851562 714.886719 284.296875 717.277344 293.59375 C 720.796875 307.289062 721.300781 319.351562 720.292969 360.683594 C 719.289062 405.785156 718.15625 415.835938 709.734375 457.421875 C 704.453125 482.925781 694.773438 520.113281 688.234375 539.964844 C 681.570312 559.9375 670.757812 587.203125 663.96875 600.644531 C 657.304688 614.214844 644.859375 634.441406 636.433594 645.871094 C 628.011719 657.179688 610.660156 678.035156 598.089844 692.230469 C 585.390625 706.304688 565.398438 725.523438 553.582031 734.820312 C 541.886719 744.117188 519.761719 759.195312 504.546875 768.492188 C 489.335938 777.789062 470.726562 787.964844 463.308594 791.105469 C 451.238281 796.132812 448.976562 796.382812 442.691406 793.367188 C 438.792969 791.355469 434.644531 787.839844 433.636719 785.578125 C 432.507812 783.191406 431.625 778.164062 431.625 774.269531 C 431.5 770.375 433.636719 765.226562 436.152344 762.964844 C 438.667969 760.703125 445.707031 756.054688 451.867188 752.660156 C 458.65625 748.894531 468.339844 739.46875 476.761719 728.414062 C 484.179688 718.488281 493.359375 705.675781 497.128906 700.019531 C 500.777344 694.367188 508.066406 679.792969 513.347656 667.734375 C 519.636719 653.160156 524.371094 636.410156 527.554688 617.480469 C 530.070312 601.773438 531.957031 588.710938 531.703125 588.332031 C 531.328125 587.957031 513.726562 593.484375 492.351562 600.519531 C 471.105469 607.554688 440.300781 615.59375 423.957031 618.484375 C 407.613281 621.25 382.089844 624.265625 367.128906 625.269531 C 349.277344 626.398438 325.640625 625.519531 297.980469 622.882812 C 274.972656 620.621094 245.929688 616.472656 233.480469 613.835938 C 221.035156 611.070312 203.308594 606.046875 194.128906 602.527344 C 184.824219 599.136719 170.367188 592.351562 161.816406 587.703125 C 153.269531 582.929688 140.445312 575.140625 133.402344 570.117188 C 126.238281 565.214844 114.796875 555.792969 107.878906 549.261719 C 100.964844 542.726562 88.394531 528.152344 79.84375 516.847656 C 71.167969 505.414062 60.355469 488.078125 55.703125 478.027344 C 51.050781 468.101562 44.390625 451.265625 40.742188 440.710938 C 37.222656 430.035156 32.949219 411.441406 31.3125 399.378906 C 29.050781 383.296875 29.050781 371.613281 31.0625 355.53125 C 32.570312 343.472656 36.71875 324.5 40.367188 313.570312 C 43.886719 302.515625 51.679688 283.921875 57.589844 272.238281 C 63.375 260.554688 74.941406 241.078125 82.988281 229.019531 C 91.285156 216.832031 108.636719 196.730469 122.085938 183.789062 C 135.414062 170.976562 156.160156 153.890625 168.230469 145.976562 C 180.300781 138.058594 201.296875 126 214.75 119.339844 C 228.199219 112.554688 250.832031 103.257812 265.039062 98.484375 C 279.246094 93.710938 305.398438 86.925781 323.25 83.410156 C 340.976562 79.890625 359.585938 76.375 364.488281 75.746094 C 369.515625 75.117188 393.28125 75.117188 417.417969 75.496094 Z M 355.8125 197.109375 C 351.160156 206.65625 351.160156 208.414062 355.183594 241.960938 C 357.449219 261.054688 361.722656 299.375 364.613281 327.140625 C 367.378906 354.777344 372.15625 395.484375 374.921875 417.46875 C 377.691406 439.457031 380.707031 470.238281 381.460938 485.816406 C 382.214844 501.394531 383.347656 517.976562 383.976562 522.625 C 384.730469 527.273438 388.375 534.183594 392.273438 538.203125 C 396.171875 542.097656 403.714844 546.246094 409.121094 547.25 C 415.28125 548.382812 421.820312 547.878906 427.101562 545.617188 C 431.753906 543.734375 438.289062 538.832031 441.683594 534.6875 C 447.71875 527.273438 447.84375 526.394531 446.085938 489.710938 C 445.203125 469.105469 443.066406 441.59375 441.308594 428.402344 C 439.546875 415.335938 438.667969 404.65625 439.421875 404.65625 C 440.175781 404.65625 447.71875 408.550781 456.269531 413.449219 C 464.691406 418.351562 481.035156 429.78125 492.351562 438.828125 C 503.792969 448 523.785156 466.71875 536.984375 480.289062 C 551.570312 495.613281 563.511719 505.792969 567.914062 506.796875 C 571.8125 507.675781 579.101562 507.675781 584.007812 506.796875 C 589.035156 505.917969 595.320312 503.152344 597.960938 500.640625 C 600.601562 498.128906 604.5 492.347656 606.386719 487.699219 C 608.273438 483.175781 609.277344 475.640625 608.648438 470.992188 C 607.769531 465.714844 601.984375 456.542969 592.554688 445.863281 C 584.511719 436.566406 568.542969 420.484375 557.101562 409.933594 C 545.660156 399.378906 527.429688 384.304688 516.617188 376.386719 C 505.804688 368.472656 494.742188 360.683594 492.101562 359.050781 C 487.574219 356.539062 488.707031 354.652344 504.925781 337.191406 C 514.730469 326.636719 527.554688 310.554688 533.589844 301.257812 C 539.625 292.085938 546.917969 279.902344 549.933594 274.246094 C 553.078125 268.46875 558.484375 255.78125 562.128906 245.855469 C 565.777344 235.929688 568.667969 224.875 568.667969 221.230469 C 568.542969 217.710938 566.28125 211.054688 563.386719 206.40625 C 560.496094 201.882812 554.460938 196.230469 549.808594 193.839844 C 544.152344 191.078125 538.117188 190.199219 531.074219 191.203125 C 524.414062 192.207031 518.378906 195.222656 514.101562 199.871094 C 510.457031 203.890625 504.042969 215.828125 500.023438 226.507812 C 495.871094 237.058594 486.945312 254.273438 480.15625 264.574219 C 473.367188 274.75 459.789062 291.585938 449.984375 301.886719 C 440.175781 312.1875 431.5 320.105469 430.746094 319.351562 C 430.117188 318.597656 428.734375 312.316406 427.855469 305.152344 C 426.972656 298.117188 425.214844 284.171875 423.957031 274.246094 C 422.574219 264.195312 420.183594 244.472656 418.675781 230.277344 C 417.042969 216.078125 413.773438 200.625 411.382812 195.726562 C 409.121094 190.953125 403.964844 185.425781 400.070312 183.539062 C 396.171875 181.53125 388.628906 180.023438 383.222656 180.148438 C 377.941406 180.148438 370.648438 181.78125 367.128906 183.664062 C 363.609375 185.550781 358.453125 191.582031 355.8125 197.109375 Z M 245.929688 227.511719 C 245.800781 235.300781 249.195312 248.871094 255.734375 267.085938 C 261.140625 282.414062 266.925781 300.628906 268.433594 307.792969 C 269.941406 314.828125 272.582031 342.71875 274.214844 369.730469 C 276.355469 405.535156 276.355469 424.632812 274.214844 440.710938 C 272.457031 454.785156 268.9375 467.597656 264.410156 476.644531 C 259.632812 486.066406 254.351562 492.347656 248.316406 495.742188 C 240.523438 500.136719 237.882812 500.390625 229.582031 497.875 C 221.664062 495.363281 218.898438 492.726562 214.371094 482.546875 C 211.351562 475.890625 207.832031 463.953125 206.574219 456.164062 C 205.320312 448.375 202.929688 440.210938 201.167969 438.074219 C 199.535156 435.9375 195.761719 432.167969 192.871094 429.78125 C 189.476562 426.894531 183.191406 425.257812 175.394531 425.257812 C 167.851562 425.257812 160.433594 426.894531 156.285156 429.65625 C 152.511719 432.167969 147.734375 437.699219 145.597656 441.96875 C 142.707031 447.75 142.203125 453.777344 143.585938 466.46875 C 144.59375 475.640625 148.992188 492.472656 153.394531 503.90625 C 159.679688 520.363281 164.207031 527.398438 175.773438 538.707031 C 187.339844 550.015625 193.375 553.785156 205.695312 557.300781 C 214.246094 559.8125 225.8125 562.453125 231.46875 563.332031 C 237.253906 564.085938 248.191406 563.457031 256.113281 561.824219 C 263.90625 560.066406 276.101562 555.039062 283.144531 550.515625 C 290.308594 545.992188 300.117188 537.578125 305.144531 531.796875 C 310.046875 526.019531 317.339844 515.089844 321.113281 507.425781 C 324.882812 499.761719 329.914062 487.699219 332.175781 480.664062 C 334.566406 473.628906 337.582031 455.539062 338.839844 440.710938 C 340.222656 423.878906 340.222656 396.363281 338.589844 368.347656 C 337.207031 343.597656 335.445312 317.96875 334.566406 311.5625 C 333.683594 305.277344 331.296875 293.59375 329.160156 285.804688 C 327.023438 278.015625 320.484375 257.789062 314.574219 240.828125 C 306.90625 218.84375 301.875 208.414062 296.722656 204.144531 C 291.316406 199.496094 286.539062 198.113281 276.480469 198.113281 C 264.914062 198.113281 262.273438 199.117188 254.730469 206.78125 C 247.8125 214.070312 246.179688 217.710938 245.929688 227.511719 Z M 245.929688 227.511719 " fill-opacity="1" fill-rule="evenodd"/></g><path fill="#ffffff" d="M 125.699219 383.710938 C 123.832031 384.066406 121.941406 384.386719 120.039062 384.675781 C 141.292969 304.445312 54.226562 303.265625 62.695312 380.226562 C 59.339844 379.84375 52.644531 373.894531 51.160156 379.175781 C 51.550781 385.9375 86.546875 391.972656 96.214844 391.53125 C 101.183594 391.117188 131.363281 392.070312 129.648438 385.425781 C 129.207031 383.671875 127.253906 383.15625 125.699219 383.710938 Z M 69.527344 382.300781 C 69.261719 382.226562 68.996094 382.152344 68.726562 382.074219 C 65.03125 370.085938 67.175781 356.925781 72.640625 345.671875 C 85.96875 320.546875 111.375 322.082031 116.839844 351.4375 C 119.226562 362.859375 116.902344 374.28125 114.167969 385.441406 C 99.363281 387.070312 83.914062 386.433594 69.527344 382.300781 Z M 238.175781 384.800781 C 238.113281 384.8125 238.050781 384.824219 237.992188 384.832031 C 260.914062 295.15625 153.058594 304.84375 183.988281 380.816406 C 181.027344 380.359375 175.449219 376.226562 174.753906 381.304688 C 176.390625 388.035156 205.625 389.554688 212.519531 390.453125 C 216.164062 390.433594 247.496094 392.777344 245.792969 386.632812 C 244.953125 383.613281 241.464844 384.207031 238.175781 384.800781 Z M 189.707031 382.167969 C 189.636719 382.152344 189.5625 382.136719 189.492188 382.125 C 186.667969 369.269531 178.671875 354.320312 186.207031 341.089844 C 196.117188 321.472656 226.214844 320.308594 232.660156 343.339844 C 237.09375 356.90625 235.394531 371.621094 232.304688 385.304688 C 218.316406 386.109375 203.554688 384.804688 189.707031 382.167969 Z M 50.984375 313.046875 C 51.480469 311.925781 52.054688 310.882812 52.683594 309.890625 C 46.488281 305.089844 68.242188 295.128906 71.859375 293.445312 C 83.925781 287.507812 97.375 285.15625 109.527344 279.625 C 110.269531 279.125 111.214844 279.015625 112.027344 279.28125 C 115.039062 275.816406 119.734375 280.871094 115.636719 283.257812 C 118.402344 295.117188 71.566406 302.332031 63.347656 312.6875 C 61.5 313.855469 60.785156 316.683594 58.402344 316.828125 C 57.082031 316.828125 55.972656 315.820312 55.785156 314.542969 C 54.5625 316.71875 50.820312 315.546875 50.984375 313.046875 Z M 86.460938 368.425781 C 86.382812 375.367188 75.902344 375.367188 75.824219 368.425781 C 75.902344 361.484375 86.382812 361.484375 86.460938 368.425781 Z M 203.496094 366.976562 C 203.417969 373.917969 192.9375 373.917969 192.859375 366.976562 C 192.9375 360.035156 203.417969 360.039062 203.496094 366.976562 Z M 265.640625 319.207031 C 265.160156 319.210938 264.6875 319.097656 264.300781 318.878906 C 263.488281 322.699219 260.070312 321.671875 258.207031 319.183594 C 257.515625 320.921875 255.246094 321.679688 253.820312 320.183594 C 242.273438 309.25 226.890625 304.664062 212.394531 299.3125 C 204.894531 296.726562 182.464844 288.121094 182.964844 279.371094 C 181.804688 276.421875 185.59375 274.707031 187.894531 277.011719 C 189.523438 275.695312 191.695312 277.332031 193.410156 278.230469 C 206.652344 284.410156 220.792969 288.453125 234.09375 294.511719 C 237.832031 296.492188 278.304688 315.5 265.640625 319.207031 Z M 265.640625 319.207031 " fill-opacity="1" fill-rule="nonzero"/></svg>